<svg width="120" height="120" version="1.1" viewBox="0 0 120 120" xmlns="http://www.w3.org/2000/svg">
 <path d="m60 1.9219c-5.1417 0-10.284 2.6149-15.426 7.8438l-33.758 34.33c-6.544 6.6549-9.8164 14.649-9.8164 23.982v33c0 11.333 5.6667 17 17 17h84c11.333 0 17-5.6667 17-17v-33c0-9.3333-3.2724-17.328-9.8164-23.982l-33.758-34.33c-5.1417-5.2288-10.284-7.8438-15.426-7.8438zm-10.678 55.873c2.9705-0.12031 4.4551 2.5459 4.4551 7.998v26.008c0 8.3081-3.4482 10.147-10.346 5.5156l-21.285-14.291c-4.1985-2.819-4.1985-5.638 0-8.457l21.285-14.291c2.371-1.592 4.3346-2.4194 5.8906-2.4824zm42.262 0c2.9705-0.12031 4.457 2.5459 4.457 7.998v26.008c0 8.3081-3.4501 10.147-10.348 5.5156l-21.283-14.291c-4.1985-2.819-4.1985-5.638 0-8.457l21.283-14.291c2.371-1.592 4.3346-2.4194 5.8906-2.4824z" fill="#000052"/>
</svg>
